<svg version="1.0" xmlns="http://www.w3.org/2000/svg"
 width="500.000000pt" height="500.000000pt" viewBox="0 0 500.000000 500.000000"
 preserveAspectRatio="xMidYMid meet">

<style type="text/css">
  .st0 {
    fill: none;
    stroke: #000000;
    stroke-width: 10;
    stroke-miterlimit: 10;
  }
  .st1 {
    fill: white;
  }
</style>

<g transform="translate(0.000000,500.000000) scale(0.100000,-0.100000)"
fill="#000000" stroke="none">
  <path class="st0" d="M0,2500l0,-2500l2500,0l2500,0l0,2500l0,2500l-2500,0l-2500,0l0,-2500z m1643,871c77,-30 149,-101 190,-188c30,-64 32,-74 32,-183c0,-104 -3,-120 -27,-173c-75,-159 -205,-236 -379,-224c-139,9 -251,82 -309,201c-118,239 -2,526 237,586c62,15 191,5 256,-19z m560,-261c78,-159 144,-290 147,-290c3,0 64,125 135,278c71,152 133,283 138,290c6,8 36,12 83,12l74,0l0,-305l0,-305l-75,0l-74,0l-3,123l-3,122l-103,-202l-102,-203l-68,0l-68,0l-110,211l-109,212c-3,-227 -2,-227 -75,0 -75,0 0,400 0,400l76,0l76,0l141,-290z m997,215l0,-75l-110,0l-110,0l0,-90l0,-90l160,0l160,0l0,-70l0,-70l-160,0l-160,0l0,-90l0,-90l110,0l110,0l0,-75l0,-75l-190,0l-190,0l0,400l0,400l190,0l190,0l0,-75z m494,61c70,-21 113,-55 141,-110c54,-107 20,-249 -71,-302c-24,-14 -44,-28 -44,-31c0,-3 34,-79 75,-170c41,-90 75,-166 75,-169c0,-3 -37,-4 -82,-2l-82,3l-71,155l-72,155l-41,3l-41,3l-3,-158l-3,-158l-77,-3l-78,-3 0,236 0,235 155,0c120,0 163,4 185,15c55,28 66,85 26,132l-24,28l-169,5l-168,5l-3,73l-3,72l164,0c113,0 179,-4 211,-14z m-2733,-972c77,-23 151,-98 174,-177c24,-84 21,-88 -76,-85l-81,3l-12,35c-15,47 -64,73 -126,67c-92,-10 -133,-110 -72,-177c23,-27 37,-32 100,-40c171,-22 268,-111 280,-257c7,-96 -11,-148 -77,-213c-57,-57 -128,-90 -192,-90l-29,0l0,84l0,84l30,7c17,4 44,18 60,32c25,20 30,32 30,67c0,71 -41,107 -135,120c-160,20 -258,108 -272,241c-7,66 10,138 45,190c30,44 106,100 156,114c50,15 138,12 197,-5z m399,-189l0,-205l-90,0l-90,0l0,205l0,205l90,0l90,0l0,-205z m545,-270l0,-470l-90,0l-90,0l-3,88l-3,87l-179,0l-180,0l0,-90l0,-90l-90,0l-90,0l0,180l0,180l270,0l270,0l0,295l0,296l93,-3l92,-3l0,-470z m597,17c97,-251 180,-465 184,-474c6,-16 -3,-18 -88,-18l-95,0l-93,265l-11,265l41,-42c23,-24 42,-47 42,-53c0,-5 -25,-34 -55,-64l-55,-54l-47,46l-48,46l-47,-24c-315,-161 -668,63 -668,424c0,206 140,395 329,448c71,19 190,17 260,-5z"/>
</g>
</svg>
